<?xml version="1.0" ?><svg enable-background="new 0 0 32 32" version="1.1" viewBox="0 0 32 32" xml:space="preserve" xmlns="http://www.w3.org/2000/svg" xmlns:xlink="http://www.w3.org/1999/xlink"><g id="Layer_4_copy_2"><g><path d="M28.722,12.722C28.722,5.696,23.026,0,16,0S3.278,5.696,3.278,12.722c0,5.666,3.706,10.462,8.825,12.108L16,32    l3.898-7.169C25.016,23.184,28.722,18.388,28.722,12.722z"/><g><defs><path d="M28.722,12.722C28.722,5.696,23.026,0,16,0S3.278,5.696,3.278,12.722c0,5.666,3.706,10.462,8.825,12.108      L16,32l3.898-7.169C25.016,23.184,28.722,18.388,28.722,12.722z" id="SVGID_3_"/></defs><clipPath id="SVGID_1_"><use overflow="visible" xlink:href="#SVGID_3_"/></clipPath><g clip-path="url(#SVGID_1_)"><rect fill="#FFFFFF" height="10.601" opacity="0.25" transform="matrix(0.7071 -0.7071 0.7071 0.7071 -1.67 8.6427)" width="27.386" x="-4.095" y="1.037"/><rect fill="#FFFFFF" height="10.601" opacity="0.25" transform="matrix(0.7071 -0.7071 0.7071 0.7071 -0.3163 5.3745)" width="27.386" x="-7.363" y="-2.231"/></g></g></g><g><g><defs><path d="M67.722,12.722C67.722,5.696,62.026,0,55,0S42.278,5.696,42.278,12.722      c0,5.666,3.706,10.462,8.825,12.108L55,32l3.898-7.169C64.016,23.184,67.722,18.388,67.722,12.722z" id="SVGID_5_"/></defs><clipPath id="SVGID_2_"><use overflow="visible" xlink:href="#SVGID_5_"/></clipPath><g clip-path="url(#SVGID_2_)"><rect fill="#FFFFFF" height="10.601" opacity="0.25" transform="matrix(0.7071 -0.7071 0.7071 0.7071 11.1066 32.9516)" width="27.386" x="31.637" y="-2.231"/></g></g></g><g><path d="M28.722,12.722C28.722,5.696,23.026,0,16,0S3.278,5.696,3.278,12.722c0,5.666,3.706,10.462,8.825,12.108L16,32    l3.898-7.169C25.016,23.184,28.722,18.388,28.722,12.722z"/><g><defs><path d="M28.722,12.722C28.722,5.696,23.026,0,16,0S3.278,5.696,3.278,12.722c0,5.666,3.706,10.462,8.825,12.108      L16,32l3.898-7.169C25.016,23.184,28.722,18.388,28.722,12.722z" id="SVGID_13_"/></defs><clipPath id="SVGID_4_"><use overflow="visible" xlink:href="#SVGID_13_"/></clipPath><g clip-path="url(#SVGID_4_)"><rect fill="#FFFFFF" height="10.601" opacity="0.25" transform="matrix(0.7071 -0.7071 0.7071 0.7071 -1.67 8.6427)" width="27.386" x="-4.095" y="1.037"/><rect fill="#FFFFFF" height="10.601" opacity="0.25" transform="matrix(0.7071 -0.7071 0.7071 0.7071 -0.3163 5.3745)" width="27.386" x="-7.363" y="-2.231"/></g></g></g><g><g><defs><path d="M28.722,51.722C28.722,44.696,23.026,39,16,39S3.278,44.696,3.278,51.722      c0,5.666,3.706,10.462,8.825,12.108L16,71l3.898-7.169C25.016,62.184,28.722,57.388,28.722,51.722z" id="SVGID_15_"/></defs><clipPath id="SVGID_6_"><use overflow="visible" xlink:href="#SVGID_15_"/></clipPath><g clip-path="url(#SVGID_6_)"><rect fill="#FFFFFF" height="10.601" opacity="0.25" transform="matrix(0.7071 -0.7071 0.7071 0.7071 -29.2472 20.0655)" width="27.386" x="-4.095" y="40.037"/><rect fill="#FFFFFF" height="10.601" opacity="0.25" transform="matrix(0.7071 -0.7071 0.7071 0.7071 -27.8934 16.7973)" width="27.386" x="-7.363" y="36.769"/></g></g></g><g><g><defs><path d="M67.717,51.722C67.717,44.696,62.021,39,54.995,39s-12.722,5.696-12.722,12.722      c0,5.666,3.706,10.462,8.825,12.108L54.995,71l3.898-7.169C64.011,62.184,67.717,57.388,67.717,51.722z" id="SVGID_47_"/></defs><clipPath id="SVGID_8_"><use overflow="visible" xlink:href="#SVGID_47_"/></clipPath><g clip-path="url(#SVGID_8_)"><rect fill="#FFFFFF" height="10.601" opacity="0.25" transform="matrix(0.7071 -0.7071 0.7071 0.7071 -16.4721 44.3709)" width="27.386" x="31.631" y="36.769"/></g></g></g></g><g id="Official_copy_2"><linearGradient gradientUnits="userSpaceOnUse" id="SVGID_14_" x1="12.7341" x2="19.2659" y1="12.5217" y2="12.5217"><stop offset="0" style="stop-color:#FFFFFF"/><stop offset="1" style="stop-color:#C8C8C8"/></linearGradient><path d="M14.181,19.531h2.897v-7.01h1.932l0.256-2.416h-2.188l0.003-1.209c0-0.63,0.06-0.968,0.964-0.968   h1.208V5.512h-1.933c-2.321,0-3.138,1.172-3.138,3.143v1.45h-1.447v2.416h1.447V19.531z" fill="url(#SVGID_14_)"/></g></svg>