<?xml version="1.0" ?><svg enable-background="new 0 0 32 32" version="1.1" viewBox="0 0 32 32" xml:space="preserve" xmlns="http://www.w3.org/2000/svg" xmlns:xlink="http://www.w3.org/1999/xlink"><g id="Layer_4_copy_2"><g><path d="M28.722,12.727c0-7.026-5.696-12.722-12.722-12.722S3.278,5.701,3.278,12.727c0,5.666,3.706,10.462,8.825,12.108    L16,32.005l3.898-7.169C25.016,23.189,28.722,18.393,28.722,12.727z"/><g><defs><path d="M28.722,12.727c0-7.026-5.696-12.722-12.722-12.722S3.278,5.701,3.278,12.727      c0,5.666,3.706,10.462,8.825,12.108L16,32.005l3.898-7.169C25.016,23.189,28.722,18.393,28.722,12.727z" id="SVGID_27_"/></defs><clipPath id="SVGID_1_"><use overflow="visible" xlink:href="#SVGID_27_"/></clipPath><g clip-path="url(#SVGID_1_)"><rect fill="#FFFFFF" height="10.601" opacity="0.25" transform="matrix(0.7071 -0.7071 0.7071 0.7071 -1.6737 8.6442)" width="27.386" x="-4.095" y="1.042"/><rect fill="#FFFFFF" height="10.601" opacity="0.25" transform="matrix(0.7071 -0.7071 0.7071 0.7071 -0.32 5.376)" width="27.386" x="-7.363" y="-2.226"/></g></g></g><g><g><defs><path d="M67.722,12.727c0-7.026-5.696-12.722-12.722-12.722S42.278,5.701,42.278,12.727      c0,5.666,3.706,10.462,8.825,12.108L55,32.005l3.898-7.169C64.016,23.189,67.722,18.393,67.722,12.727z" id="SVGID_29_"/></defs><clipPath id="SVGID_2_"><use overflow="visible" xlink:href="#SVGID_29_"/></clipPath><g clip-path="url(#SVGID_2_)"><rect fill="#FFFFFF" height="10.601" opacity="0.25" transform="matrix(0.7071 -0.7071 0.7071 0.7071 11.1029 32.9532)" width="27.386" x="31.637" y="-2.226"/></g></g></g></g><g id="Official_copy_2"><g><linearGradient gradientUnits="userSpaceOnUse" id="SVGID_12_" x1="9.0974" x2="18.2474" y1="12.5167" y2="12.5167"><stop offset="0" style="stop-color:#FFFFFF"/><stop offset="1" style="stop-color:#C8C8C8"/></linearGradient><path d="M18.247,5.478c0,0-3.232,0-4.339,0c-1.985,0-3.854,1.393-3.854,3.134    c0,1.779,1.353,3.163,3.372,3.163c0.141,0,0.277-0.032,0.411-0.042c-0.132,0.25-0.224,0.519-0.224,0.812    c0,0.495,0.265,0.89,0.601,1.217c-0.252,0-0.499,0.004-0.767,0.004c-2.459,0.001-4.351,1.565-4.351,3.189    c0,1.599,2.075,2.601,4.533,2.601c2.803,0,4.352-1.592,4.352-3.191c0-1.282-0.379-2.05-1.548-2.879    c-0.4-0.282-1.166-0.971-1.166-1.377c0-0.474,0.135-0.708,0.85-1.267c0.731-0.572,1.25-1.254,1.25-2.19    c0-1.113-0.479-2.47-1.41-2.47h1.584L18.247,5.478z M16.791,16.087c0.034,0.149,0.054,0.302,0.054,0.457    c0,1.292-0.834,2.302-3.224,2.302c-1.7,0-2.927-1.075-2.927-2.368c0-1.266,1.522-2.321,3.223-2.302    c0.396,0.004,0.766,0.068,1.101,0.175C15.942,14.994,16.603,15.357,16.791,16.087z M14.069,11.267    c-1.141-0.033-2.226-1.276-2.422-2.773c-0.196-1.499,0.569-2.646,1.709-2.612c1.14,0.035,2.226,1.237,2.422,2.735    C15.975,10.114,15.21,11.3,14.069,11.267z" fill="url(#SVGID_12_)"/><linearGradient gradientUnits="userSpaceOnUse" id="SVGID_14_" x1="18.2474" x2="23.8782" y1="11.8072" y2="11.8072"><stop offset="0" style="stop-color:#FFFFFF"/><stop offset="1" style="stop-color:#C8C8C8"/></linearGradient><polygon fill="url(#SVGID_14_)" points="21.767,11.103 21.767,8.992 20.359,8.992 20.359,11.103 18.247,11.103 18.247,12.511     20.359,12.511 20.359,14.623 21.767,14.623 21.767,12.511 23.878,12.511 23.878,11.103   "/></g></g></svg>