<?xml version="1.0" ?><svg enable-background="new 0 0 32 32" version="1.1" viewBox="0 0 32 32" xml:space="preserve" xmlns="http://www.w3.org/2000/svg" xmlns:xlink="http://www.w3.org/1999/xlink"><g id="Layer_4_copy_2"><g><g><defs><path d="M28.727,51.712c0-7.026-5.696-12.722-12.722-12.722S3.283,44.686,3.283,51.712      c0,5.666,3.706,10.462,8.825,12.108l3.898,7.169l3.898-7.169C25.021,62.174,28.727,57.378,28.727,51.712z" id="SVGID_37_"/></defs><clipPath id="SVGID_1_"><use overflow="visible" xlink:href="#SVGID_37_"/></clipPath><g clip-path="url(#SVGID_1_)"><rect fill="#FFFFFF" height="10.601" opacity="0.25" transform="matrix(0.7071 -0.7071 0.7071 0.7071 -29.2383 20.0662)" width="27.386" x="-4.09" y="40.027"/><rect fill="#FFFFFF" height="10.601" opacity="0.25" transform="matrix(0.7071 -0.7071 0.7071 0.7071 -27.8846 16.798)" width="27.386" x="-7.358" y="36.758"/></g></g></g><g><path d="M28.722,12.722C28.722,5.696,23.026,0,16,0S3.278,5.696,3.278,12.722c0,5.666,3.706,10.462,8.825,12.108L16,32    l3.898-7.169C25.016,23.184,28.722,18.388,28.722,12.722z"/><g><defs><path d="M28.722,12.722C28.722,5.696,23.026,0,16,0S3.278,5.696,3.278,12.722c0,5.666,3.706,10.462,8.825,12.108      L16,32l3.898-7.169C25.016,23.184,28.722,18.388,28.722,12.722z" id="SVGID_45_"/></defs><clipPath id="SVGID_2_"><use overflow="visible" xlink:href="#SVGID_45_"/></clipPath><g clip-path="url(#SVGID_2_)"><rect fill="#FFFFFF" height="10.601" opacity="0.25" transform="matrix(0.7071 -0.7071 0.7071 0.7071 -1.67 8.6427)" width="27.386" x="-4.095" y="1.037"/><rect fill="#FFFFFF" height="10.601" opacity="0.25" transform="matrix(0.7071 -0.7071 0.7071 0.7071 -0.3163 5.3745)" width="27.386" x="-7.363" y="-2.231"/></g></g></g></g><g id="Official_copy_2"><linearGradient gradientUnits="userSpaceOnUse" id="SVGID_8_" x1="9.3049" x2="22.6951" y1="12.5094" y2="12.5094"><stop offset="0" style="stop-color:#FFFFFF"/><stop offset="1" style="stop-color:#C8C8C8"/></linearGradient><path d="M21.021,5.814H10.979c-0.945,0-1.674,0.729-1.674,1.674v10.043c0,0.945,0.729,1.674,1.674,1.674   h10.043c0.945,0,1.674-0.729,1.674-1.674V7.488C22.695,6.543,21.966,5.814,21.021,5.814z M16.01,9.879   c1.485,0,2.688,1.166,2.688,2.605c0,1.438-1.203,2.605-2.688,2.605c-1.484,0-2.688-1.167-2.688-2.605   C13.322,11.045,14.526,9.879,16.01,9.879z M21.021,17.112c0,0.293-0.126,0.418-0.418,0.418h-9.206   c-0.292,0-0.418-0.125-0.418-0.418v-5.858l1.043,0.227c-0.112,0.364-0.173,0.749-0.173,1.149c0,2.225,1.864,4.031,4.161,4.031   c2.298,0,4.161-1.806,4.161-4.031c0-0.4-0.061-0.785-0.172-1.149l1.023-0.227V17.112z M21.021,9.58   c0,0.231-0.187,0.418-0.418,0.418h-1.674c-0.231,0-0.418-0.187-0.418-0.418V7.907c0-0.231,0.187-0.418,0.418-0.418h1.674   c0.231,0,0.418,0.187,0.418,0.418V9.58z" fill="url(#SVGID_8_)"/></g></svg>