<?xml version="1.0" ?><svg enable-background="new 0 0 32 32" version="1.1" viewBox="0 0 32 32" xml:space="preserve" xmlns="http://www.w3.org/2000/svg" xmlns:xlink="http://www.w3.org/1999/xlink"><g id="Layer_4_copy_2"><g><g><defs><path d="M28.727,51.717c0-7.026-5.696-12.722-12.722-12.722S3.283,44.691,3.283,51.717      c0,5.666,3.706,10.462,8.825,12.108l3.898,7.169l3.898-7.169C25.021,62.179,28.727,57.383,28.727,51.717z" id="SVGID_39_"/></defs><clipPath id="SVGID_1_"><use overflow="visible" xlink:href="#SVGID_39_"/></clipPath><g clip-path="url(#SVGID_1_)"><rect fill="#FFFFFF" height="10.601" opacity="0.25" transform="matrix(0.7071 -0.7071 0.7071 0.7071 -29.2419 20.0676)" width="27.386" x="-4.09" y="40.032"/><rect fill="#FFFFFF" height="10.601" opacity="0.25" transform="matrix(0.7071 -0.7071 0.7071 0.7071 -27.8881 16.7994)" width="27.386" x="-7.358" y="36.763"/></g></g></g><g><g><defs><path d="M67.727,51.717c0-7.026-5.696-12.722-12.722-12.722s-12.722,5.696-12.722,12.722      c0,5.666,3.706,10.462,8.825,12.108l3.898,7.169l3.898-7.169C64.021,62.179,67.727,57.383,67.727,51.717z" id="SVGID_41_"/></defs><clipPath id="SVGID_2_"><use overflow="visible" xlink:href="#SVGID_41_"/></clipPath><g clip-path="url(#SVGID_2_)"><rect fill="#FFFFFF" height="10.601" opacity="0.25" transform="matrix(0.7071 -0.7071 0.7071 0.7071 -16.4653 44.3765)" width="27.386" x="31.642" y="36.763"/></g></g></g><g><path d="M28.722,12.712c0-7.026-5.696-12.722-12.722-12.722S3.278,5.685,3.278,12.712c0,5.666,3.706,10.462,8.825,12.108    L16,31.989l3.898-7.169C25.016,23.173,28.722,18.377,28.722,12.712z"/><g><defs><path d="M28.722,12.712c0-7.026-5.696-12.722-12.722-12.722S3.278,5.685,3.278,12.712      c0,5.666,3.706,10.462,8.825,12.108L16,31.989l3.898-7.169C25.016,23.173,28.722,18.377,28.722,12.712z" id="SVGID_47_"/></defs><clipPath id="SVGID_4_"><use overflow="visible" xlink:href="#SVGID_47_"/></clipPath><g clip-path="url(#SVGID_4_)"><rect fill="#FFFFFF" height="10.601" opacity="0.25" transform="matrix(0.7071 -0.7071 0.7071 0.7071 -1.6625 8.6396)" width="27.386" x="-4.095" y="1.026"/><rect fill="#FFFFFF" height="10.601" opacity="0.25" transform="matrix(0.7071 -0.7071 0.7071 0.7071 -0.3088 5.3714)" width="27.386" x="-7.363" y="-2.242"/></g></g></g><g><g><defs><path d="M67.727,12.712c0-7.026-5.696-12.722-12.722-12.722S42.283,5.685,42.283,12.712      c0,5.666,3.706,10.462,8.825,12.108l3.898,7.169l3.898-7.169C64.021,23.173,67.727,18.377,67.727,12.712z" id="SVGID_49_"/></defs><clipPath id="SVGID_6_"><use overflow="visible" xlink:href="#SVGID_49_"/></clipPath><g clip-path="url(#SVGID_6_)"><rect fill="#FFFFFF" height="10.601" opacity="0.25" transform="matrix(0.7071 -0.7071 0.7071 0.7071 11.1156 32.9522)" width="27.386" x="31.642" y="-2.242"/></g></g></g></g><g id="Official_copy_2"><linearGradient gradientUnits="userSpaceOnUse" id="SVGID_12_" x1="9.2302" x2="22.7698" y1="12.3593" y2="12.3593"><stop offset="0" style="stop-color:#FFFFFF"/><stop offset="1" style="stop-color:#C8C8C8"/></linearGradient><path d="M22.77,18.83v-5.007c0-2.682-1.432-3.931-3.341-3.931c-1.541,0-2.231,0.848-2.616,1.442v-1.237   h-2.903c0.038,0.819,0,8.732,0,8.732h2.903v-4.877c0-0.26,0.019-0.521,0.096-0.707c0.209-0.522,0.687-1.061,1.488-1.061   c1.051,0,1.47,0.801,1.47,1.974v4.672L22.77,18.83L22.77,18.83z M10.853,8.906c1.012,0,1.642-0.671,1.642-1.509   c-0.019-0.856-0.631-1.508-1.623-1.508S9.23,6.54,9.23,7.397c0,0.838,0.63,1.509,1.604,1.509H10.853z M12.304,18.83v-8.732H9.402   v8.732H12.304z" fill="url(#SVGID_12_)"/></g></svg>