<?xml version="1.0" ?><svg enable-background="new 0 0 32 32" version="1.1" viewBox="0 0 32 32" xml:space="preserve" xmlns="http://www.w3.org/2000/svg" xmlns:xlink="http://www.w3.org/1999/xlink"><g id="Layer_4_copy_2"><g><path d="M28.722,12.722C28.722,5.696,23.026,0,16,0S3.278,5.696,3.278,12.722c0,5.666,3.706,10.462,8.825,12.108L16,32    l3.898-7.169C25.016,23.184,28.722,18.388,28.722,12.722z"/><g><defs><path d="M28.722,12.722C28.722,5.696,23.026,0,16,0S3.278,5.696,3.278,12.722c0,5.666,3.706,10.462,8.825,12.108      L16,32l3.898-7.169C25.016,23.184,28.722,18.388,28.722,12.722z" id="SVGID_21_"/></defs><clipPath id="SVGID_1_"><use overflow="visible" xlink:href="#SVGID_21_"/></clipPath><g clip-path="url(#SVGID_1_)"><rect fill="#FFFFFF" height="10.601" opacity="0.25" transform="matrix(0.7071 -0.7071 0.7071 0.7071 -1.67 8.6427)" width="27.386" x="-4.095" y="1.037"/><rect fill="#FFFFFF" height="10.601" opacity="0.25" transform="matrix(0.7071 -0.7071 0.7071 0.7071 -0.3163 5.3745)" width="27.386" x="-7.363" y="-2.231"/></g></g></g><g><g><defs><path d="M67.696,12.722C67.696,5.696,62,0,54.974,0S42.252,5.696,42.252,12.722      c0,5.666,3.706,10.462,8.825,12.108L54.974,32l3.898-7.169C63.99,23.184,67.696,18.388,67.696,12.722z" id="SVGID_23_"/></defs><clipPath id="SVGID_2_"><use overflow="visible" xlink:href="#SVGID_23_"/></clipPath><g clip-path="url(#SVGID_2_)"><rect fill="#FFFFFF" height="10.601" opacity="0.25" transform="matrix(0.7071 -0.7071 0.7071 0.7071 11.0989 32.9332)" width="27.386" x="31.611" y="-2.231"/></g></g></g></g><g id="Official_copy_2"><linearGradient gradientUnits="userSpaceOnUse" id="SVGID_8_" x1="9.5605" x2="22.4395" y1="12.6456" y2="12.6456"><stop offset="0" style="stop-color:#FFFFFF"/><stop offset="1" style="stop-color:#C8C8C8"/></linearGradient><path clip-rule="evenodd" d="M16.091,4.469c-3.647,0-6.53,3.058-6.53,6.748   c0,3.855,5.07,9.604,6.53,9.604c1.279,0,6.349-5.749,6.349-9.604C22.439,7.528,19.556,4.469,16.091,4.469z M16.112,14.724   c-2.277,0-4.032-1.737-4.032-3.769c0-0.941,0.319-1.781,0.841-2.454c0.007,0.836,0.693,1.511,1.539,1.511   c0.85,0,1.54-0.683,1.54-1.524c0-0.619-0.374-1.149-0.909-1.388c0.326-0.081,0.664-0.137,1.021-0.137   c2.053,0,3.808,1.737,3.808,3.991C19.92,12.987,18.165,14.724,16.112,14.724z" fill="url(#SVGID_8_)" fill-rule="evenodd"/></g></svg>