<svg width="106" height="105" viewBox="0 0 106 105" fill="none" xmlns="http://www.w3.org/2000/svg">
<g clip-path="url(#clip0)">
<path d="M71.384 97.291H94.4613C97.6669 97.291 100.391 96.1693 102.635 93.9265C104.878 91.6832 106 88.9595 106 85.7543L106 62.6816C106 59.4766 104.879 56.7533 102.635 54.5104C100.391 52.2678 97.6663 51.1457 94.4613 51.1457H80.9998C79.3978 51.1457 78.0353 50.5846 76.9134 49.4633C75.7915 48.3426 75.2307 46.9799 75.2307 45.3769V43.4552C75.2307 39.2088 76.7334 35.5848 79.738 32.5799C82.7427 29.5765 86.3682 28.0743 90.6157 28.0743H94.4613C95.5037 28.0743 96.4048 27.6927 97.1663 26.9321C97.9273 26.1715 98.308 25.2699 98.308 24.2284V16.5365C98.308 15.4966 97.9273 14.5933 97.1663 13.8325C96.4042 13.0722 95.5039 12.6904 94.4613 12.6904H90.6155C86.4484 12.6904 82.472 13.5027 78.6857 15.1245C74.8996 16.7465 71.6246 18.9403 68.86 21.7044C66.0961 24.4687 63.9023 27.7426 62.2799 31.5283C60.6576 35.3137 59.8462 39.2892 59.8462 43.455V85.7551C59.8462 88.9603 60.9681 91.6838 63.2113 93.9267C65.4545 96.1695 68.1793 97.291 71.384 97.291Z" fill="#FFE36C"/>
<path d="M9.36726 93.9265C11.6102 96.1693 14.3346 97.291 17.5402 97.291H40.6167C43.8222 97.291 46.5464 96.1693 48.7896 93.9265C51.0326 91.683 52.1541 88.9595 52.1541 85.7543V62.6816C52.1541 59.4765 51.0326 56.7533 48.7896 54.5104C46.5464 52.2678 43.822 51.1457 40.6167 51.1457H27.1552C25.5531 51.1457 24.1896 50.5846 23.0679 49.4633C21.9472 48.342 21.3852 46.9799 21.3852 45.3769V43.4552C21.3852 39.2088 22.8879 35.5848 25.8931 32.5799C28.8976 29.5765 32.5223 28.0742 36.7702 28.0742H40.6167C41.6582 28.0742 42.5601 27.6927 43.3208 26.9321C44.0822 26.1715 44.4634 25.2699 44.4634 24.2284V16.5364C44.4634 15.4966 44.0822 14.5933 43.3208 13.8325C42.5603 13.0721 41.6584 12.6904 40.6167 12.6904H36.7702C32.6037 12.6904 28.6276 13.5027 24.8408 15.1245C21.0554 16.7465 17.7808 18.9403 15.016 21.7044C12.2514 24.4687 10.0564 27.7434 8.43495 31.5282C6.81295 35.3129 6.00105 39.2892 6.00105 43.455V85.7551C6.00165 88.9603 7.12256 91.6838 9.36726 93.9265Z" fill="#FFE36C"/>
<mask id="mask0" mask-type="alpha" maskUnits="userSpaceOnUse" x="53" y="7" width="47" height="86">
<path d="M65.384 92.292H88.4613C91.6669 92.292 94.3911 91.1703 96.6351 88.9274C98.8781 86.6842 100 83.9605 100 80.7552V57.6826C100 54.4775 98.8787 51.7542 96.6351 49.5114C94.3913 47.2688 91.6663 46.1467 88.4613 46.1467L74.9998 46.1466C73.3978 46.1466 72.0353 45.5856 70.9134 44.4643C69.7915 43.3436 69.2307 41.9809 69.2307 40.3779V38.4562C69.2307 34.2098 70.7334 30.5858 73.738 27.5809C76.7427 24.5775 80.3682 23.0752 84.6157 23.0752H88.4613C89.5037 23.0752 90.4048 22.6937 91.1664 21.9331C91.9273 21.1725 92.3081 20.2709 92.3081 19.2294V11.5374C92.3081 10.4976 91.9273 9.59435 91.1664 8.83355C90.4042 8.07318 89.5039 7.69141 88.4613 7.69141H84.6155C80.4484 7.69141 76.472 8.50377 72.6857 10.1255C68.8996 11.7475 65.6246 13.9413 62.86 16.7054C60.0961 19.4697 57.9023 22.7436 56.2799 26.5292C54.6576 30.3147 53.8462 34.2902 53.8462 38.456V80.7561C53.8462 83.9613 54.9681 86.6848 57.2113 88.9276C59.4545 91.1705 62.1793 92.292 65.384 92.292Z" fill="white"/>
</mask>
<g mask="url(#mask0)">
<path d="M65.384 92.292H88.4613C91.6669 92.292 94.3911 91.1703 96.6351 88.9274C98.8781 86.6842 100 83.9605 100 80.7552V57.6826C100 54.4775 98.8787 51.7542 96.6351 49.5114C94.3913 47.2688 91.6663 46.1467 88.4613 46.1467L74.9998 46.1466C73.3978 46.1466 72.0353 45.5856 70.9134 44.4643C69.7915 43.3436 69.2307 41.9809 69.2307 40.3779V38.4562C69.2307 34.2098 70.7334 30.5858 73.738 27.5809C76.7427 24.5775 80.3682 23.0752 84.6157 23.0752H88.4613C89.5037 23.0752 90.4048 22.6937 91.1664 21.9331C91.9273 21.1725 92.3081 20.2709 92.3081 19.2294V11.5374C92.3081 10.4976 91.9273 9.59435 91.1664 8.83355C90.4042 8.07318 89.5039 7.69141 88.4613 7.69141H84.6155C80.4484 7.69141 76.472 8.50377 72.6857 10.1255C68.8996 11.7475 65.6246 13.9413 62.86 16.7054C60.0961 19.4697 57.9023 22.7436 56.2799 26.5292C54.6576 30.3147 53.8462 34.2902 53.8462 38.456V80.7561C53.8462 83.9613 54.9681 86.6848 57.2113 88.9276C59.4545 91.1705 62.1793 92.292 65.384 92.292Z" stroke="#212121" stroke-width="2"/>
</g>
<mask id="mask1" mask-type="alpha" maskUnits="userSpaceOnUse" x="0" y="7" width="47" height="86">
<path d="M3.36695 88.9275C5.60995 91.1704 8.33455 92.2921 11.5402 92.2921H34.6167C37.8222 92.2921 40.5464 91.1704 42.7896 88.9275C45.0326 86.6841 46.1541 83.9606 46.1541 80.7553V57.6827C46.1541 54.4776 45.0326 51.7543 42.7896 49.5115C40.5464 47.2689 37.822 46.1467 34.6167 46.1467H21.1552C19.5531 46.1467 18.1896 45.5857 17.0679 44.4644C15.9472 43.343 15.3852 41.981 15.3852 40.3779V38.4563C15.3852 34.2099 16.8879 30.5858 19.8931 27.581C22.8976 24.5775 26.5223 23.0753 30.7702 23.0753H34.6167C35.6582 23.0753 36.5601 22.6938 37.3208 21.9332C38.0822 21.1726 38.4634 20.271 38.4634 19.2295V11.5375C38.4634 10.4976 38.0822 9.59435 37.3208 8.83355C36.5603 8.07318 35.6584 7.69141 34.6167 7.69141H30.7702C26.6037 7.69141 22.6276 8.50377 18.8408 10.1256C15.0554 11.7475 11.7808 13.9413 9.01595 16.7055C6.25135 19.4698 4.05595 22.7445 2.43495 26.5293C0.812952 30.3139 0.000953674 34.2903 0.000953674 38.456V80.7562C0.00195367 83.9614 1.12295 86.6849 3.36695 88.9275Z" fill="white"/>
</mask>
<g mask="url(#mask1)">
<path d="M3.36695 88.9275C5.60995 91.1704 8.33455 92.2921 11.5402 92.2921H34.6167C37.8222 92.2921 40.5464 91.1704 42.7896 88.9275C45.0326 86.6841 46.1541 83.9606 46.1541 80.7553V57.6827C46.1541 54.4776 45.0326 51.7543 42.7896 49.5115C40.5464 47.2689 37.822 46.1467 34.6167 46.1467H21.1552C19.5531 46.1467 18.1896 45.5857 17.0679 44.4644C15.9472 43.343 15.3852 41.981 15.3852 40.3779V38.4563C15.3852 34.2099 16.8879 30.5858 19.8931 27.581C22.8976 24.5775 26.5223 23.0753 30.7702 23.0753H34.6167C35.6582 23.0753 36.5601 22.6938 37.3208 21.9332C38.0822 21.1726 38.4634 20.271 38.4634 19.2295V11.5375C38.4634 10.4976 38.0822 9.59435 37.3208 8.83355C36.5603 8.07318 35.6584 7.69141 34.6167 7.69141H30.7702C26.6037 7.69141 22.6276 8.50377 18.8408 10.1256C15.0554 11.7475 11.7808 13.9413 9.01595 16.7055C6.25135 19.4698 4.05595 22.7445 2.43495 26.5293C0.812952 30.3139 0.000953674 34.2903 0.000953674 38.456V80.7562C0.00195367 83.9614 1.12295 86.6849 3.36695 88.9275Z" stroke="#212121" stroke-width="2"/>
</g>
</g>
<defs>
<clipPath id="clip0">
<rect width="106" height="105" fill="white" transform="matrix(-1 0 0 1 106 0)"/>
</clipPath>
</defs>
</svg>
