<?xml version="1.0" ?><svg enable-background="new 0 0 32 32" version="1.1" viewBox="0 0 32 32" xml:space="preserve" xmlns="http://www.w3.org/2000/svg" xmlns:xlink="http://www.w3.org/1999/xlink"><g id="Layer_4_copy_2"><g><path d="M28.722,12.722C28.722,5.696,23.026,0,16,0S3.278,5.696,3.278,12.722c0,5.666,3.706,10.462,8.825,12.108L16,32    l3.898-7.169C25.016,23.184,28.722,18.388,28.722,12.722z"/><g><defs><path d="M28.722,12.722C28.722,5.696,23.026,0,16,0S3.278,5.696,3.278,12.722c0,5.666,3.706,10.462,8.825,12.108      L16,32l3.898-7.169C25.016,23.184,28.722,18.388,28.722,12.722z" id="SVGID_15_"/></defs><clipPath id="SVGID_1_"><use overflow="visible" xlink:href="#SVGID_15_"/></clipPath><g clip-path="url(#SVGID_1_)"><rect fill="#FFFFFF" height="10.601" opacity="0.25" transform="matrix(0.7071 -0.7071 0.7071 0.7071 -1.67 8.6427)" width="27.386" x="-4.095" y="1.037"/><rect fill="#FFFFFF" height="10.601" opacity="0.25" transform="matrix(0.7071 -0.7071 0.7071 0.7071 -0.3163 5.3745)" width="27.386" x="-7.363" y="-2.231"/></g></g></g><g><g><defs><path d="M28.722,51.727c0-7.026-5.696-12.722-12.722-12.722S3.278,44.701,3.278,51.727      c0,5.666,3.706,10.462,8.825,12.108L16,71.005l3.898-7.169C25.016,62.189,28.722,57.393,28.722,51.727z" id="SVGID_17_"/></defs><clipPath id="SVGID_2_"><use overflow="visible" xlink:href="#SVGID_17_"/></clipPath><g clip-path="url(#SVGID_2_)"><rect fill="#FFFFFF" height="10.601" opacity="0.25" transform="matrix(0.7071 -0.7071 0.7071 0.7071 -29.2509 20.0671)" width="27.386" x="-4.095" y="40.042"/><rect fill="#FFFFFF" height="10.601" opacity="0.25" transform="matrix(0.7071 -0.7071 0.7071 0.7071 -27.8971 16.7988)" width="27.386" x="-7.363" y="36.774"/></g></g></g><g><g><defs><path d="M67.722,51.727c0-7.026-5.696-12.722-12.722-12.722s-12.722,5.696-12.722,12.722      c0,5.666,3.706,10.462,8.825,12.108L55,71.005l3.898-7.169C64.016,62.189,67.722,57.393,67.722,51.727z" id="SVGID_39_"/></defs><clipPath id="SVGID_4_"><use overflow="visible" xlink:href="#SVGID_39_"/></clipPath><g clip-path="url(#SVGID_4_)"><rect fill="#FFFFFF" height="10.601" opacity="0.25" transform="matrix(0.7071 -0.7071 0.7071 0.7071 -16.4743 44.376)" width="27.386" x="31.637" y="36.774"/></g></g></g><g><g><defs><path d="M67.717,12.722C67.717,5.696,62.021,0,54.995,0S42.273,5.696,42.273,12.722      c0,5.666,3.706,10.462,8.825,12.108L54.995,32l3.898-7.169C64.011,23.184,67.717,18.388,67.717,12.722z" id="SVGID_47_"/></defs><clipPath id="SVGID_6_"><use overflow="visible" xlink:href="#SVGID_47_"/></clipPath><g clip-path="url(#SVGID_6_)"><rect fill="#FFFFFF" height="10.601" opacity="0.25" transform="matrix(0.7071 -0.7071 0.7071 0.7071 11.1051 32.948)" width="27.386" x="31.631" y="-2.231"/></g></g></g></g><g id="Official_copy_2"><linearGradient gradientUnits="userSpaceOnUse" id="SVGID_12_" x1="9.013" x2="23.5207" y1="12.3699" y2="12.3699"><stop offset="0" style="stop-color:#FFFFFF"/><stop offset="1" style="stop-color:#C8C8C8"/></linearGradient><path d="M18.101,6.508c-1.31,0.477-2.138,1.706-2.044,3.052l0.032,0.519l-0.524-0.064   c-1.907-0.244-3.574-1.07-4.99-2.459L9.883,6.869L9.705,7.377c-0.377,1.134-0.136,2.332,0.65,3.137   c0.419,0.445,0.325,0.509-0.398,0.244c-0.252-0.085-0.472-0.148-0.493-0.117c-0.073,0.075,0.178,1.039,0.377,1.42   c0.273,0.53,0.828,1.049,1.436,1.357l0.514,0.244l-0.608,0.011c-0.587,0-0.608,0.011-0.545,0.234c0.21,0.689,1.038,1.42,1.96,1.738   l0.65,0.222l-0.566,0.339c-0.838,0.488-1.824,0.763-2.809,0.784c-0.472,0.011-0.86,0.053-0.86,0.085   c0,0.106,1.279,0.699,2.023,0.932c2.233,0.689,4.885,0.392,6.877-0.784c1.415-0.837,2.83-2.501,3.491-4.113   c0.357-0.858,0.713-2.427,0.713-3.179c0-0.488,0.032-0.551,0.618-1.134c0.346-0.339,0.671-0.71,0.734-0.816   c0.105-0.202,0.094-0.202-0.44-0.022c-0.891,0.318-1.017,0.276-0.576-0.201c0.325-0.339,0.713-0.954,0.713-1.134   c0-0.032-0.157,0.021-0.336,0.117c-0.189,0.106-0.608,0.265-0.922,0.36l-0.566,0.181l-0.514-0.35   c-0.283-0.191-0.681-0.403-0.891-0.466C19.401,6.318,18.583,6.339,18.101,6.508z" fill="url(#SVGID_12_)"/></g></svg>