<?xml version="1.0" ?><svg enable-background="new 0 0 32 32" version="1.1" viewBox="0 0 32 32" xml:space="preserve" xmlns="http://www.w3.org/2000/svg" xmlns:xlink="http://www.w3.org/1999/xlink"><g id="Layer_4_copy_2"><g><g><defs><path d="M28.722,51.712c0-7.026-5.696-12.722-12.722-12.722S3.278,44.686,3.278,51.712      c0,5.666,3.706,10.462,8.825,12.108L16,70.99l3.898-7.169C25.016,62.174,28.722,57.378,28.722,51.712z" id="SVGID_31_"/></defs><clipPath id="SVGID_1_"><use overflow="visible" xlink:href="#SVGID_31_"/></clipPath><g clip-path="url(#SVGID_1_)"><rect fill="#FFFFFF" height="10.601" opacity="0.25" transform="matrix(0.7071 -0.7071 0.7071 0.7071 -29.2398 20.0625)" width="27.386" x="-4.095" y="40.027"/><rect fill="#FFFFFF" height="10.601" opacity="0.25" transform="matrix(0.7071 -0.7071 0.7071 0.7071 -27.8861 16.7943)" width="27.386" x="-7.363" y="36.758"/></g></g></g><g><g><defs><path d="M67.727,51.712c0-7.026-5.696-12.722-12.722-12.722s-12.722,5.696-12.722,12.722      c0,5.666,3.706,10.462,8.825,12.108l3.898,7.169l3.898-7.169C64.021,62.174,67.727,57.378,67.727,51.712z" id="SVGID_33_"/></defs><clipPath id="SVGID_2_"><use overflow="visible" xlink:href="#SVGID_33_"/></clipPath><g clip-path="url(#SVGID_2_)"><rect fill="#FFFFFF" height="10.601" opacity="0.25" transform="matrix(0.7071 -0.7071 0.7071 0.7071 -16.4617 44.3751)" width="27.386" x="31.642" y="36.758"/></g></g></g><g><path d="M28.722,12.722C28.722,5.696,23.026,0,16,0S3.278,5.696,3.278,12.722c0,5.666,3.706,10.462,8.825,12.108L16,32    l3.898-7.169C25.016,23.184,28.722,18.388,28.722,12.722z"/><g><defs><path d="M28.722,12.722C28.722,5.696,23.026,0,16,0S3.278,5.696,3.278,12.722c0,5.666,3.706,10.462,8.825,12.108      L16,32l3.898-7.169C25.016,23.184,28.722,18.388,28.722,12.722z" id="SVGID_39_"/></defs><clipPath id="SVGID_4_"><use overflow="visible" xlink:href="#SVGID_39_"/></clipPath><g clip-path="url(#SVGID_4_)"><rect fill="#FFFFFF" height="10.601" opacity="0.25" transform="matrix(0.7071 -0.7071 0.7071 0.7071 -1.67 8.6427)" width="27.386" x="-4.095" y="1.037"/><rect fill="#FFFFFF" height="10.601" opacity="0.25" transform="matrix(0.7071 -0.7071 0.7071 0.7071 -0.3163 5.3745)" width="27.386" x="-7.363" y="-2.231"/></g></g></g><g><g><defs><path d="M67.722,12.722C67.722,5.696,62.026,0,55,0S42.278,5.696,42.278,12.722      c0,5.666,3.706,10.462,8.825,12.108L55,32l3.898-7.169C64.016,23.184,67.722,18.388,67.722,12.722z" id="SVGID_41_"/></defs><clipPath id="SVGID_6_"><use overflow="visible" xlink:href="#SVGID_41_"/></clipPath><g clip-path="url(#SVGID_6_)"><rect fill="#FFFFFF" height="10.601" opacity="0.25" transform="matrix(0.7071 -0.7071 0.7071 0.7071 11.1066 32.9516)" width="27.386" x="31.637" y="-2.231"/></g></g></g></g><g id="Official_copy_2"><g><linearGradient gradientUnits="userSpaceOnUse" id="SVGID_12_" x1="8.161" x2="23.839" y1="12.4137" y2="12.4137"><stop offset="0" style="stop-color:#FFFFFF"/><stop offset="1" style="stop-color:#C8C8C8"/></linearGradient><path d="M23.682,9.071c0,0-0.153-1.153-0.623-1.661c-0.596-0.665-1.264-0.669-1.571-0.707    c-2.194-0.17-5.485-0.17-5.485-0.17h-0.007c0,0-3.291,0-5.485,0.17C10.205,6.74,9.538,6.744,8.941,7.41    c-0.47,0.508-0.623,1.661-0.623,1.661s-0.157,1.353-0.157,2.706v1.268c0,1.354,0.157,2.707,0.157,2.707s0.153,1.153,0.623,1.659    c0.597,0.665,1.38,0.645,1.729,0.715C11.923,18.255,16,18.295,16,18.295s3.294-0.006,5.489-0.174    c0.306-0.039,0.974-0.043,1.571-0.709c0.47-0.507,0.623-1.659,0.623-1.659s0.157-1.353,0.157-2.707v-1.268    C23.839,10.424,23.682,9.071,23.682,9.071z M14.042,15.354V9.473l4.901,2.941L14.042,15.354z" fill="url(#SVGID_12_)"/></g></g></svg>